<svg xmlns="http://www.w3.org/2000/svg" xmlns:xlink="http://www.w3.org/1999/xlink" viewBox="0 0 286.923 108.461" height="144.615" width="382.564"><defs><symbol id="d" overflow="visible"><path d="M5.813.406c0-2.738-.2-5.347-.594-7.828l-.58-3.766c-.335-2.132-.906-3.234-1.718-3.296-.9-.07-1.524.82-1.875 2.671-.375-.1-.563-.335-.563-.703 0-.894.422-1.863 1.266-2.906.844-1.04 1.617-1.562 2.328-1.562 1.04 0 1.86.86 2.453 2.578.603 1.71 1.118 4.652 1.548 8.828l.11 1.094c2.082-3.82 3.64-7.317 4.67-10.485l2.11-2.014c.134 1.593.27 2.828.407 3.703l.422 2.842.312 1.985.78 4.547.422-.688c2.727-4.476 4.094-7.347 4.094-8.61 0-.687-.36-1.273-1.078-1.765l2.14-2.014c.884.48 1.33 1.12 1.33 1.922 0 .98-.68 2.585-2.032 4.812l-1.078 1.797-1.344 2.328c-.96 1.668-1.657 3.152-2.094 4.453L15.125.468a71.368 71.368 0 0 0-.875-6.734l-.297-1.671-.765-4.157-.83 1.53A59.14 59.14 0 0 0 8.517-2.06zm0 0"/></symbol><symbol id="e" overflow="visible"><path d="M12.922-7.047c-1.336 2.2-2.805 4-4.406 5.406C6.91-.235 5.516.47 4.328.47 2.71.47 1.906-.845 1.906-3.47c0-3.592 1.176-6.706 3.532-9.342 2.363-2.633 5.16-3.954 8.39-3.954 1.227 0 2.274.157 3.14.47-.054.21-.09.34-.11.39l-.202.937c-.148.658-.226 1.04-.234 1.142l-1.14 7.844-.157 1.14c-.156 1.125-.234 1.875-.234 2.25 0 .512.15.766.454.766.988 0 2.004-1.113 3.047-3.344.32.2.485.39.485.578 0 .407-.512 1.242-1.53 2.5C15.956-.384 14.674.47 13.5.47c-.867 0-1.297-.583-1.297-1.75 0-.353.04-.845.125-1.47l.172-1.422.234-1.562zm1.015-7.047c-1.074-.6-2.164-.906-3.265-.906-1.656 0-3.047 1.012-4.172 3.03-1.125 2.025-1.688 4.533-1.688 7.533 0 1.542.454 2.312 1.36 2.312 1.062 0 2.336-.805 3.828-2.422 2.008-2.164 3.227-4.707 3.656-7.625zm0 0"/></symbol><symbol id="f" overflow="visible"><path d="M7.453-14.47l-.89 7.845c-.15 1.406-.22 2.45-.22 3.125 0 1.344.454 2.016 1.36 2.016.977 0 2-.805 3.063-2.422.175.23.265.433.265.61 0 .655-.585 1.448-1.75 2.374C8.114.004 7.11.468 6.267.468 4.586.47 3.75-.608 3.75-2.765c0-.79.098-2.078.297-3.86l.875-7.843h-3.75l2.078-2.06h1.906l.36-3.236 2.61-.86-.438 4.095h7.53l-2.077 2.06zm0 0"/></symbol><symbol id="g" overflow="visible"><path d="M12.672-5.64c.3.2.453.433.453.702 0 .368-.383.997-1.14 1.89C9.96-.702 7.96.47 5.984.47 4.772.47 3.78-.01 3-.97c-.78-.968-1.172-2.194-1.172-3.686 0-2.696 1.02-5.426 3.063-8.188 2.04-2.758 4.063-4.14 6.063-4.14 1.445 0 2.172.773 2.172 2.312 0 1.742-.844 3.445-2.53 5.11C8.904-7.907 6.847-6.755 4.42-6.11c.238 2.856 1.363 4.282 3.375 4.282 1.988 0 3.613-1.27 4.875-3.813zM4.484-8.267c.344.118.66.172.954.172 1.468 0 2.75-.445 3.843-1.344 1.103-.906 1.658-1.96 1.658-3.17 0-1.384-.704-2.08-2.11-2.08-1.023 0-1.945.61-2.765 1.83-.825 1.21-1.352 2.74-1.58 4.592zm0 0"/></symbol><symbol id="h" overflow="visible"><path d="M7.688-9.516c2.625-4.976 5.21-7.468 7.765-7.468.656 0 1.317.152 1.985.453l-2.5 2.733c-.387-.207-.876-.312-1.47-.312-1.23 0-2.527 1-3.89 3C8.21-9.116 7.41-7.05 7.172-4.905L6.688-.563 4.063.313l.062-.53.125-1.14.14-1.158.923-8.453.11-.92a15.25 15.25 0 0 0 .124-1.704c0-.726-.203-1.094-.61-1.094-.95 0-1.89 1.016-2.828 3.047-.294-.227-.434-.462-.422-.704.03-.72.687-1.672 1.968-2.86 1.29-1.187 2.305-1.78 3.047-1.78 1.008 0 1.516.664 1.516 1.984 0 .324-.033.758-.095 1.297L8-12.47l-.156 1.5zm0 0"/></symbol><symbol id="i" overflow="visible"><path d="M14.25-16.53l-2.016 2.436c-.95-.394-1.855-.594-2.718-.594-1.555 0-2.778.665-3.672 1.985-.887 1.312-1.328 3.11-1.328 5.39 0 1.606.316 2.903.953 3.89.643.982 1.487 1.47 2.53 1.47 1.77 0 3.156-1.156 4.156-3.47.258.294.39.564.39.814 0 .98-.765 2.075-2.296 3.282C8.72-.128 7.312.47 6.03.47 4.8.47 3.79-.024 3-1.017c-.78-.988-1.172-2.27-1.172-3.843 0-3.07 1.04-5.86 3.125-8.36 2.082-2.507 4.395-3.764 6.938-3.764.926 0 1.712.152 2.36.453zm0 0"/></symbol><symbol id="j" overflow="visible"><path d="M5.828.47c-2.668 0-4-1.767-4-5.298 0-2.844 1.04-5.578 3.125-8.203 2.082-2.634 4.242-3.954 6.484-3.954 2.696 0 4.047 1.76 4.047 5.28 0 2.856-1.043 5.602-3.125 8.235C10.272-.843 8.097.47 5.827.47zm2.14-2c1.364 0 2.505-.755 3.423-2.267.915-1.52 1.376-3.41 1.376-5.672 0-3.686-1.15-5.53-3.438-5.53-1.355 0-2.492.762-3.406 2.28-.918 1.525-1.375 3.408-1.375 5.658 0 3.687 1.14 5.53 3.422 5.53zm0 0"/></symbol><symbol id="k" overflow="visible"><path d="M14.734-6.984c-1.343 2.074-2.867 3.836-4.562 5.28C8.484-.253 7.102.47 6.032.47c-1.17 0-1.75-.782-1.75-2.345 0-.582.077-1.535.234-2.86l.64-5.827c.008-.083.035-.426.078-1.032l.11-1.156c.03-.344.047-.648.047-.922 0-.687-.195-1.03-.577-1.03-.9 0-1.868 1.01-2.907 3.03-.23-.176-.343-.363-.343-.562 0-.727.648-1.704 1.953-2.922 1.312-1.22 2.35-1.828 3.125-1.828.977 0 1.47.672 1.47 2.015 0 .325-.024.7-.063 1.126l-.172 1.36-.156 1.5-.564 5.078c-.093.867-.14 1.742-.14 2.625 0 .81.3 1.217.906 1.217 1.332 0 2.844-1.097 4.53-3.296 1.69-2.195 2.69-4.374 3-6.53l.595-4.22 2.875-.968a39.982 39.982 0 0 0-.735 3.672L17.11-5.984l-.14 1.14-.126.97c-.074.604-.11 1.03-.11 1.28 0 .512.145.766.438.766 1 0 2.02-1.113 3.062-3.344.32.2.485.39.485.578 0 .407-.517 1.242-1.548 2.5C17.785-.384 16.504.47 15.328.47c-.867 0-1.297-.583-1.297-1.75 0-.365.04-.853.126-1.47l.188-1.422c.1-.77.176-1.29.22-1.562zm0 0"/></symbol><symbol id="l" overflow="visible"><path d="M.766-.5l2.453-2c.913.98 2.07 1.47 3.467 1.47 1.708 0 2.563-.822 2.563-2.47 0-.906-.78-2.176-2.344-3.813L5.89-8.358c-1.48-1.55-2.218-2.804-2.218-3.765 0-1.375.594-2.523 1.78-3.453 1.196-.938 2.665-1.406 4.407-1.406.945 0 1.976.18 3.093.53l-2.125 1.97c-.898-.676-1.898-1.016-3-1.016-1.293 0-1.937.54-1.937 1.61 0 .773.72 1.902 2.157 3.39L9.14-9.328c1.633 1.71 2.454 3.086 2.454 4.125 0 1.492-.72 2.808-2.156 3.953C8.008-.102 6.357.47 4.484.47A7.515 7.515 0 0 1 .766-.5zm0 0"/></symbol><symbol id="m" overflow="visible"><path d="M4.11-1.75l.67.156c-.147.555-.4.97-.764 1.25-.356.28-.793.422-1.313.422-.543 0-.984-.11-1.328-.328C1.04-.47.785-.785.61-1.203a3.34 3.34 0 0 1-.266-1.344c0-.52.097-.973.297-1.36a2.11 2.11 0 0 1 .86-.874 2.42 2.42 0 0 1 1.22-.314c.5 0 .913.133 1.25.39.342.25.58.606.717 1.063l-.64.156c-.125-.364-.297-.63-.516-.797-.217-.165-.495-.25-.827-.25-.387 0-.71.093-.97.28a1.452 1.452 0 0 0-.546.75c-.105.305-.156.62-.156.953 0 .43.064.805.19 1.125.124.313.315.547.577.703.258.157.547.236.86.236.363 0 .675-.102.937-.313.258-.22.43-.535.515-.953zm0 0"/></symbol><symbol id="n" overflow="visible"><path d="M.344-2.438c0-.832.22-1.484.656-1.953.445-.47 1.023-.704 1.734-.704.47 0 .883.11 1.25.328.375.22.657.528.844.922.195.4.297.844.297 1.344 0 .512-.105.97-.313 1.375-.2.398-.484.7-.86.906-.374.2-.78.298-1.218.298-.468 0-.89-.11-1.265-.328a2.133 2.133 0 0 1-.845-.938 2.88 2.88 0 0 1-.28-1.25zm.672 0c0 .606.16 1.086.484 1.438.332.344.742.516 1.234.516.5 0 .91-.172 1.235-.516.32-.352.483-.852.483-1.5 0-.406-.074-.758-.22-1.063a1.556 1.556 0 0 0-.608-.718 1.645 1.645 0 0 0-.89-.25c-.47 0-.876.163-1.22.483-.335.324-.5.86-.5 1.61zm0 0"/></symbol><symbol id="o" overflow="visible"><path d="M3.828-5.016h.656v2.907c0 .5-.058.903-.17 1.204-.107.293-.31.53-.61.72-.306.178-.696.264-1.173.264-.467 0-.854-.078-1.155-.234a1.455 1.455 0 0 1-.64-.703c-.126-.3-.188-.718-.188-1.25v-2.906h.672v2.89c0 .438.034.763.108.97a.93.93 0 0 0 .422.484c.195.106.438.156.72.156.487 0 .835-.11 1.046-.328.207-.22.312-.644.312-1.28zm0 0"/></symbol><symbol id="p" overflow="visible"><path d="M.53 0v-5.016h.69l2.624 3.938v-3.938h.64V0h-.687L1.172-3.938V0zm0 0"/></symbol><symbol id="q" overflow="visible"><path d="M.313-1.61l.625-.062c.03.262.097.47.203.625.114.156.286.29.516.39.227.095.485.14.766.14.25 0 .47-.034.656-.108a.925.925 0 0 0 .438-.297.714.714 0 0 0 .156-.437.627.627 0 0 0-.14-.406c-.095-.125-.247-.222-.454-.296-.137-.05-.433-.133-.89-.25-.46-.114-.782-.22-.97-.313a1.418 1.418 0 0 1-.546-.47A1.15 1.15 0 0 1 .5-3.718c0-.25.07-.483.22-.702.143-.22.35-.383.624-.5.28-.113.586-.172.922-.172.375 0 .703.063.984.188.28.117.5.29.656.515.156.23.24.495.25.796l-.64.047c-.032-.32-.15-.562-.344-.72-.2-.163-.492-.25-.875-.25-.4 0-.688.076-.875.22-.188.15-.28.324-.28.53 0 .19.065.34.202.454.125.118.453.235.984.36.54.117.914.22 1.125.312.29.136.504.308.64.515.134.21.204.445.204.703 0 .274-.078.527-.234.766-.15.23-.368.414-.657.547-.28.126-.6.188-.953.188-.46 0-.844-.062-1.156-.187a1.63 1.63 0 0 1-.72-.593 1.757 1.757 0 0 1-.264-.906zm0 0"/></symbol><symbol id="r" overflow="visible"><path d="M.547 0v-5.016h3.625v.594H1.22v1.53h2.764v.595H1.22v1.703h3.077V0zm0 0"/></symbol><symbol id="s" overflow="visible"><path d="M.516 0v-5.016h.656v4.422h2.47V0zm0 0"/></symbol><symbol id="t" overflow="visible"><path d="M.656 0v-5.016h.656V0zm0 0"/></symbol><symbol id="u" overflow="visible"><path d="M2.89-1.97v-.577L5-2.562v1.86A3.75 3.75 0 0 1 4-.11 3.09 3.09 0 0 1 2.937.08c-.5 0-.953-.1-1.36-.312a2.073 2.073 0 0 1-.905-.907 3 3 0 0 1-.297-1.344c0-.49.098-.942.297-1.36a2 2 0 0 1 .89-.937c.383-.208.82-.314 1.313-.314.363 0 .69.06.984.172.288.117.52.28.687.5.164.21.297.48.39.813l-.61.157a1.828 1.828 0 0 0-.28-.594 1.066 1.066 0 0 0-.47-.344 1.665 1.665 0 0 0-.686-.14c-.304 0-.57.046-.796.14-.22.093-.4.218-.53.374a1.58 1.58 0 0 0-.314.485 2.714 2.714 0 0 0-.188 1.014c0 .438.07.81.22 1.11.155.304.378.527.67.672.302.148.614.218.94.218a2.323 2.323 0 0 0 1.467-.515v-.94zm0 0"/></symbol><symbol id="w" overflow="visible"><path d="M1.813 0v-4.422H.173v-.594H4.14v.594H2.485V0zm0 0"/></symbol><symbol id="x" overflow="visible"><path d="M.547 0v-5.016h2.22c.444 0 .784.047 1.014.14.24.095.427.26.564.485.144.218.218.468.218.75 0 .355-.12.656-.36.906-.23.242-.585.39-1.06.453.174.085.31.167.405.25.187.178.367.4.547.67L4.97 0h-.845L3.47-1.047c-.2-.3-.36-.53-.486-.687a1.444 1.444 0 0 0-.343-.329 1.183 1.183 0 0 0-.28-.14 4.146 4.146 0 0 0-.376-.016H1.22V0zm.672-2.797h1.42c.3 0 .536-.03.704-.094a.727.727 0 0 0 .39-.297.824.824 0 0 0 .14-.454.72.72 0 0 0-.265-.58c-.17-.155-.438-.233-.813-.233H1.22zm0 0"/></symbol><clipPath id="a"><path d="M10 9h245v92H10zm0 0"/></clipPath><clipPath id="b"><path d="M19.54 15.164c-3.317 1.14-6.048.68-7.7.215-1.15-.32-1.777-.642-1.73-.43 3.695 4.343 10.226 3.32 12.718 1.984 3.15-1.188 5.66-2.414 8.06-2.93 4.635-1.227 7.983 1.37 7.69 4.445.848 2.87 1.336 8.058.645 11.66-.743 15.44-5.98 30.867-7.028 47.714.38-.863.746.13.805 1.012l-.277.184.46 1.375c-.054 1.265-.76.675-.76-.403-.29 3.406-.462 6.65-.15 10.332.133 1.848.33 3.62 1.64 6.707.013 1.794 5.966 5.236 8.716 3.24 1.975-.915 2.987-1.903 3.78-2.672-.11-1.067 2.62-3.235 1.938-3.97.332-.167.187.11.218.38 2.34-4.285 2.356-4.492 5.418-7.586C62.02 72.98 61.246 69.004 66.488 57.95c-.2 3.745-.414 7.542-.593 11.374 1.23 2.78.375 6.477 1.515 9.746l-.426-.215c.543 2.766-.195 3.43-.656 7.04.5.015.2 1.382.996.828.74 1.175-1.082 2.308-.45 4.21-.085.036-.06.036 0 .036.126-.005.42-.005.278.288.88 2.414.91 2.29.5 2.265-.172.004-.394.067-.496.59-.047.27-.066.657-.027 1.21-.07.126.436 1.33.948 2.044.145.21.418 1.02 2.625 1.817 2.277.527 3.426-.086 3.988-.454 4.962-4.996 3.12-5.34 4.486-7.812.617-1.988 1.136-3.898 1.683-5.8 1.07-3.747 2.206-7.384 3.663-10.763-.2.305-.722.22-.507-.414 1.504-.22.496-2.5 1.453-3.542.22.192.09.81.08 1.168 1.673-2.94 1.895-5.85 3.63-8.527.59-3.028 3.144-5.735 3.38-7.82.28.663.91-1.044 1.448-1.474-.45-2.656 3.105-4.836 3.6-7.56l.193.224c2.942-4.972 6.864-9.765 11.23-12.78-.19.382-.37.776-.53 1.198.027.656-.32 1.992.188 1.645-3.184 5.465 2.753 14.3 9.117 15.172-.96-.903.152-.875 1.63-.848 1.252.023 2.764.047 3.502-.492.852-.133 1.16.07 1.086.336 3.65-1.34 4.454-2.355 7.64-3.492 1.298-.878 1.31-1.734 3.067-2.437 1.47.29 3.458-1.808 5.243-2.34-.59-.374.222-1.386 1.41-2.093 4.8 11.946 17 9.594 22.515 6.29 1.98-.33 4.875-1.395 6.528-2.208 2.027-1.626 2.824-1.965 3.922-3.54.8-.468 1.523-.2 1.937-.136.254-.102.52-.196.79-.286-.24 1.348-.192 2.965.937 4.286 1.73 2.015 3.367 2.586 4.633 3.597.316-.014.808.048 1.3.115 1.086.144 2.188.285 1.5-.46 1.102.303.37 1.167 1.664.952l-1.305.457c6.18 2.336 12.078 2.492 18.18 1.87 1.132.614 3.062.333 5.187.048 1.37-.18 2.824-.364 4.195-.31 1.97-.753 5.57-.475 6.88-1.913l.175.554c2.687-.317 6.285-.887 9.8-1.106 2.048-.125 1.926-.996 3.485-1.48l.172.558c1.71-.578 2.073-1.52 2.66-2.183.683.105 1.058.066 1.43.027.385-.043.764-.086 1.483.043a7.08 7.08 0 0 0-3.11 2.067c2.16-.036 4.18-1.65 5.583-.907 1.746.09 3.09-.175 3.328-.855.168.183 1.043.32.23.64 1.344-.12 2.196-.132 3.004-.457-.113 0-.246-.018-.39-.038-.176-.023-.368-.05-.532-.04.64-.585 1.985-.557 1.7-1.432-.692.23-.73.37-1.62.304.362-.61 2.71-.793 3.268-.254.66.618-1.582 1.02-.52 1.383 1.126-.45 2.254-.793 3.422-1.175-.765.117-1.597-.29-1.273-.766l-1.523.28.09-.624c-1.024.102-1.93.047-2.813-.008-1.297-.082-2.56-.168-4.102.25l1.016.586c-1.523.133-2.983 1.032-4.433.45.668-.297.153-.575.102-.922-.34.148-.708.437-1.142.38l.473-.904c-.827 1.184-4 .703-4.62 1.028l.195-.227c-2.312-.175.473.552-1.043.76-1.32-.005-.637-1.107-1.898-1.396-2.285.34-6.067 1.735-8.72 1.293-1.983.492-4.144 1.21-5.882 1.957-.78.106-.894-.094-.918-.293-.03-.26.102-.518-.887-.1.145-.4-.156-.762-.363-1.098-.226.438-3.344.375-1.804 1.14-2.63.102-5.547.305-8.254.665.906-.137 1.093-.836.324-1.13-1.21.778-3.4 1.196-5.656 1 .023.712.765.74.515 1.423-.34.093-.907.386-1.48.3-.31-.75-.16-1.87-2.154-1.988.3-.558 1.13-.488 1.79-.422.675.07 1.167.14.738-.46.88-.79 4.43-1.008 5.27-.434 1.726-1.082-1.403-.05-1.098-1.06-1.555.075-2.32.712-4.735.708-.05.496.78.606-.366.95-2.285.96-2.648-.95-3.152-1.04l1.062-.13c-.754-.295-1.265-.225-1.828-.155-.434.054-.902.11-1.535-.01-.105-.74.65-.604 1.438-.467.622.105 1.262.21 1.543-.11l-.91-1.062c-.952-.198-1.21.01-1.397.212-.227.246-.356.492-1.5.035l.355-.41-1.398-.016c-.145.474-.03 1.255 1.187 1.443-1.062 1.035-1.14-.047-3.113-.32-.844.495.844.194.68.86.027.706-1.348.334-2.4.112-1.65-.53-.585-1.028-1.05-1.703.3.02 1.583.312 1.32.668 2.208-.082-.386-1.703 1.13-1.758-.883-.57-1.278-.406-1.668-.242-.196.082-.39.164-.65.156.326.242-.49.598-.276.95-2.066.573-1.934-.49-2.03-1.41.378-.087.835-.368 1.268-.93.235-2.61.23-2.282.07-1.954-.18.38-.566.754-1.03-3.234 1.667 3.125.308-3.863-4.477-4.102 4.243 1.867 3.08 1.57 1.192 1.27-1.426-.227-3.265-.453-3.492.258-2.36.554-3.63.41-3.555.105.297-.345.735-.696 1.157-1.048-.36.258-.516.207-.696.153-.195-.06-.414-.118-.945.238-.15.586-.62 1.578-.706 2.297-.824.617-1.75.38-2.012.617l1.227-1.156c-.907.536-1.17.317-1.407.094-.247-.23-.47-.46-1.38.172l-.2.84c-.33.07-.588-.027-.57-.262-.276.457-1.14.825-1.464 1.157l-.32-.335c-.61.61-1.173 1.988-2.44 1.61 1.162.624.915-.415 2.423-.618 1.157.308-.972 1.29-1.218 1.53-.395-1.07-1.99.83-2.907 1.177-.68-.152-1.21-.113-1.613-.234l-.078.832c-.496-.723-.988-.247-1.543.234-.383.324-.793.656-1.258.594.38-.594.125-1.117-.59-1.114 1.196.82-1.11 1.66-.707 2.297-1.79-.008.136-1.418-.528-2.066-.317.476-.734.418-1.106.36-.38-.06-.71-.122-.847.39.874.394-.11.672-.38 1.156-1.328-.168.312-.394-.625-.922-.598.048-1.63.728-.676 1.204-.325-.132-.716-.113-1.106-.093-.637.036-1.286.067-1.664-.55-.06-.363.386-.278.792-.192.39.082.747.16.586-.152-.828-.344-1.222-.035-1.613.27-.406.324-.812.644-1.703.214.496.715-.922 1.442-2.055.786-.785-1.196-.422-.91.078-.62.418.24.934.483.938-.158-.223-.183-.5-.347-.656-.586.21-.632.894-.582 1.54-.53.667.054 1.296.108 1.303-.614l-.632-.078c.36-.125.863-.485 1.007-.785-.46.238-.54.097-.546-.04-.005-.1.026-.207-.025-.156-.703.105.23.073-.293.195-.234-.063-1.52-.356-.836-1.004.375.477.91.25 1.242.524.188.047-.035-.078-.207-.207-.155-.113-.268-.227-.014-.22l.3.286a1.12 1.12 0 0 1 .387-.17l.196-.04c4.608-1.77 4.092-1.575 3.58-1.38-.285.11-.566.215 0 0l.008-.007.02-.028.05-.046.095-.11.183-.21.367-.434c.16-.196.598-.895.782-1.387.136-.468.136-.08.332-1.273.25-1.308-.56-3.42-1.657-4.234-3.715-1.562-4.367-1.262-4.69-.957-.177.16-.26.324-.665.195-.488.177-.96.365-1.297.53-2.918 1.397-5.04 3.003-6.68 4.772-1.05-.262-2.562.446-5.074 1.196 1.113-.317.38.62-.148.996l-1.465-.15c-1.55.298-2.917 1.896-3.913 2.954-.29-.027-.465-.18-.63-.34-1.417.164-1 1.06-1.366 1.457l-1.038-.085.105.574c-1.02.926-2.633 1.648-2.922.77-.37.39-.738.796-.03.71-1.79.47-3.583 1.203-4.92 1.41.587.24.58.536.673 1.098-.106.53-.2.414-.38.297-.144-.1-.347-.193-.655.06-.012-.338-.567-.784.144-.99-1.36-1.212-3.25-1.88-2.937-4.403-.098-.46-.274-.348-.512-.637 1.168-1.144 1.543-3.36 3.66-4.355-.6-.008-.832-1.407.348-2.12.168-.248.308-.384.437-.443.207.078.41.164.617.254.07.07.14.15.215.227.274.28.606.566 1.11.507.035-.058.078-.117.12-.17.044.01.083.022.126.034l.09.027.05.017.01.008c-.165 3.457-.102 2.21.023-.364.51-.397 1.27-.663 1.625-.776l.007.144.55-.492.333-.226.09-.055.04-.023.01-.012c-.023.543.07-1.453.17-3.445.038-.817.073-1.63.104-2.274h-.015l-.028-.003-.258-.05c-.676-.145-1.34-.387-1.875-.75l.2.007a6.095 6.095 0 0 1-.564-.27c.024-.452.04-.792.047-.976h-.012l-.035.02-.285.086-.57.2-.246.093c-.453-.215-.926-.38-1.418-.4-.278.298-1 .282-1.754.27-.84-.02-1.723-.035-2.067.387-.132-.078.07-.14-.222-.29l-.077.63c-.696-.074-1.41-.238-2.12-.238.42-.348.51-.574 1.1-.785-2.367-.265-.72.66-1.84 1.17-1.445.745-1.476.116-2.308.014.336-.257.687-.242.996-.226.212.012.4.02.548-.06.46-.382.066-.33-.375-.28-.328.04-.688.078-.74-.066-.346.054-.315.78-1.42 1.046-.985.25-3.055 1.325-3.075.64-.593.735-1.504 1.153-1.894 1.728.77-.282 2.13-.82 2.465-.508-.587.422-1.705 1.25-2.052 1.094l.406-.422c-.453.37-2.207 1.386-.992 1.312l-1.676.117c-.164.722-1.312 1.57-2.07 2.48-.52-.485-.297-1.735-2.11-.324-.34.597-.562 1.257-.824 1.88-.633.768-.93.854-1.133.463-2.563 2.35-.743 3.867-2.766 5.57-.047-1.39-.63-.688-1.496.156.086.117.25.363-.004.78.508-.053-.078-.9.898-1.315.578.075-.332 1.075-.5 1.614-2.85.902-4.48 6.262-6.844 9.188 1.028.234-.51 1.605-.488 2.457-.847-.662-.71 1.967-1.722 2.6l1.175-.062c-1.484 1.79-.043 3.957-1.746 4.726-.762 1.043-.54-.69-.47-1.234-1.73 1.164-.94 4.63-2.588 5.453.33.297 1.15.062.956 1.602-.864.957-2.207 3.01-2.305 2.742-.155 1.004.06 1.367-.663 2.265-.223-.187-.098-.644-.082-1.004-.856 1.532-.88 2.997-1.03 4.55-1.052.618-1.67 3.622-2.705 5.333.555 1.357-1.343 2.86-.285 3.427-.12-.03-.316.125-.414.203.103.805.68 1.625.443 2.53l-.692-.553c-.42-.25-.675.246-.885.86-.13-1.7-.31-3.31-.47-4.286.14.337.333.35.114-.01-.103-1.005-.614-2.153-.192-2.247-.24-.98.476-.89.586-2.383.1-.02-.293-.148-.48-.047.933-2.488-.372-5.738.425-8.714.018.25.37.635.565.897-.172-2.367-.26-4.63-.886-6.793.276.246.553.2.678.77.11-1.633.102-3.55-.445-4.36-.21.59-.09.567.05.547.118-.015.25-.034.208.306-.663 1.133-1.09-1.02-.86-2.09l.15-.02c.113-1.64-.238-1.742-.12-3.38.25-.534.257-.198.288.138.027.27.066.53.258.37 1.066-.3.945-3.694 1.086-4.026-.2-.402-.33-.973-.614-.93-.175-1.304.65-.547.664-1.44l-1.105-2.384c.473-.926.95-1.836 1.422-2.73.452-.825.897-1.602 1.245-2.172-.176-.106-.723-.578-2.258-2.176-.676-.395-1.02-.773-1.21-1.05-.02.288-.25.526-.427.745-.01-.06-.035-.132-.054-.206.066-.12.097-.238.03-.344l-.116.07a1.093 1.093 0 0 1-.05-.27c-.064.103-.142.22-.232.357-.203.125-.43.183-.664.19.375-.944-1.117-.06-.925-1.007a8.34 8.34 0 0 1-.447.918c-.988.297-2.922.828-2.363.707l.027.192c.078.633.114 1.578.12 2.617-.377.574-.745 1.125-1.05 1.61 1.743-.75-.843 2.812.133 3.218-.535 1.27.153-.11.883-1.64-.004.2-.01.394-.015.593-.578 1.457-1.114 2.98-1.13 4.285-.156-.18-.417-.086-.335-.664-1.313 1.973 1.05.957-.645 3.153l-.218-.794c-.223 1.742-1.766 2.77-1.832 4.843-.286-.06-.2-.48-.22-.794-.515 1.688-1.452 3.442-1.425 5.075-.402.08-.57-.265-.5-.992-1.098 1.403.055 2.102-.922 3.39-.198.345-.784.817-.886.778.036.946-.964 3.028-1.156 3.868-.41.054-.78.574-1.54 1.3-3.796 7.817-7.71 15.743-11.82 23.352-.874.273-.675-.27-.44-.816.222-.508.476-1.016-.067-.864.755.43-.538 1.395-1.956 3.457l-.168-.023c-.582.847-1.504.894-1.84 1.187l.03.235c-1.073.562.04-1.805-1.085-1.977l.44-1.02c-1.32-.96.175-1.906-.81-3.32l.188.172c.312-2-1-4.316-.192-5.07-.082-1.78-.02-3.844-.808-4.254.34-.356.804-.063 1.047.227.26-6.657 1.605-14.024 1.418-20.07.218-.274.3.11.445.316-.38-3.813 2.148-7.375.723-10.332l-.617-1.08c.414-.815.93-.678 1.29-1.31-.383-.782.324-3.372-.305-3.884.35-.35.38.215.6.23.357-1.68-.483-3.753-.077-5.316l.29.54c1.977-7.735 4.512-20.368-1.332-25.2-1.3-1.074.055-1.305-.63-1.78-1.983-1.17-4.112-1.646-6.28-1.646-5.28 0-10.762 2.848-14.79 5.426m128.407 15.583h-.007.003zM179.977 37.832c-.012.012-.024.02-.036.03h-.01l.047-.03M72.527 86.56a.22.22 0 0 1-.122.057c.047-.023.086-.047.12-.058M71.527 92.003c.357.02.654.05.904.09-.3-.04-.664-.063-1.094-.063.008-.003.016-.007.023-.007a2.2 2.2 0 0 1 .167-.02M123.16 23.08c.004-.1.008-.152.008-.152s-.004.054-.008.152m2.492 2.043h.004l.06-1.265s-.025.516-.064 1.266m50.45 6.872c.1-.074.218-.172.355-.297-.113.098-.234.196-.355.297m-6.688 2.992a.608.608 0 0 0 .078-.222.493.493 0 0 0-.078.222M71.63 36.78c.44-.706.253-.522.616.005.012-.176-.055-.367-.258-.586-.297.152-.37.36-.36.58m4.087 3.232c.133.078.058-.05.04-.067a.588.588 0 0 1-.04.067m111.562 2.074c-.097-.07-.297-.137-.66-.184.266.13.477.18.66.184m52.934 1.324a1.04 1.04 0 0 0 .126-.246zm-26.358.317c-.692.597.585 1.253 2.01 1.304.033.02.06.04.083.056-.09-.215-.082-.422.176-.62-.17-.02-.343-.08-.51-.134-.423-.137-.852-.273-1.33.078-.378-.183.388-.683-.33-.683h-.098m2.27.738c.312.043.624-.028.956-.414-.476.138-.777.274-.957.415m37.696.222c.172-.027.344-.082.5-.167-.168.054-.336.113-.5.167m-37.742.645c.035-.07 0-.148-.13-.246.033.082.08.164.13.246m32.414.61c.145 0 .254-.028.29-.13-.094.047-.192.09-.29.13M122.52 51.155l1.26-.195c.13-.105.216-.218.243-.32-.453.17-.953.34-1.503.516m-63.536 11.66c0-.023-.004-.046-.004-.07-.015.04-.01.063.004.07m30.196.223a6.78 6.78 0 0 0-.102.687c.14-.258.15-.434.164-.786l-.062.1m-15.46 5.444c.175.024.116-.097-.025-.277l.024.277m10.803 5.87a.452.452 0 0 0 .055-.13c-.016.042-.035.088-.055.13"/></clipPath><linearGradient gradientTransform="matrix(244.20654 0 0 244.20654 10.108 55.306)" x2="1" gradientUnits="userSpaceOnUse" id="c"><stop offset="0" stop-color="#1e1a38"/><stop offset=".016" stop-color="#1e1a38"/><stop offset=".023" stop-color="#1e1a38"/><stop offset=".027" stop-color="#1e1b39"/><stop offset=".031" stop-color="#1e1b39"/><stop offset=".035" stop-color="#1e1c3a"/><stop offset=".039" stop-color="#1e1d3a"/><stop offset=".043" stop-color="#1e1d3b"/><stop offset=".047" stop-color="#1e1e3c"/><stop offset=".051" stop-color="#1e1e3c"/><stop offset=".055" stop-color="#1e1f3d"/><stop offset=".059" stop-color="#1e203d"/><stop offset=".063" stop-color="#1e203e"/><stop offset=".066" stop-color="#1e213e"/><stop offset=".07" stop-color="#1e213f"/><stop offset=".074" stop-color="#1e2240"/><stop offset=".078" stop-color="#1e2341"/><stop offset=".082" stop-color="#1e2341"/><stop offset=".086" stop-color="#1e2442"/><stop offset=".09" stop-color="#1e2543"/><stop offset=".094" stop-color="#1e2543"/><stop offset=".098" stop-color="#1e2544"/><stop offset=".102" stop-color="#1e2645"/><stop offset=".105" stop-color="#1e2745"/><stop offset=".109" stop-color="#1e2746"/><stop offset=".113" stop-color="#1e2846"/><stop offset=".117" stop-color="#1e2847"/><stop offset=".121" stop-color="#1d2948"/><stop offset=".125" stop-color="#1d2948"/><stop offset=".129" stop-color="#1d2a49"/><stop offset=".133" stop-color="#1d2b49"/><stop offset=".137" stop-color="#1d2b4a"/><stop offset=".141" stop-color="#1d2b4a"/><stop offset=".145" stop-color="#1d2c4b"/><stop offset=".148" stop-color="#1d2d4c"/><stop offset=".152" stop-color="#1d2d4d"/><stop offset=".156" stop-color="#1d2d4d"/><stop offset=".16" stop-color="#1d2e4e"/><stop offset=".164" stop-color="#1d2f4f"/><stop offset=".168" stop-color="#1c2f4f"/><stop offset=".172" stop-color="#1c2f4f"/><stop offset=".176" stop-color="#1c3050"/><stop offset=".18" stop-color="#1c3151"/><stop offset=".184" stop-color="#1c3151"/><stop offset=".188" stop-color="#1c3252"/><stop offset=".191" stop-color="#1c3253"/><stop offset=".195" stop-color="#1c3353"/><stop offset=".199" stop-color="#1b3354"/><stop offset=".203" stop-color="#1b3455"/><stop offset=".207" stop-color="#1b3456"/><stop offset=".211" stop-color="#1b3556"/><stop offset=".215" stop-color="#1a3657"/><stop offset=".219" stop-color="#1a3658"/><stop offset=".223" stop-color="#1a3759"/><stop offset=".227" stop-color="#1a3759"/><stop offset=".23" stop-color="#19385a"/><stop offset=".234" stop-color="#19395b"/><stop offset=".238" stop-color="#19395b"/><stop offset=".242" stop-color="#18395c"/><stop offset=".246" stop-color="#183a5d"/><stop offset=".25" stop-color="#183b5e"/><stop offset=".254" stop-color="#183b5e"/><stop offset=".258" stop-color="#173c5f"/><stop offset=".262" stop-color="#173c60"/><stop offset=".266" stop-color="#163d61"/><stop offset=".27" stop-color="#163d61"/><stop offset=".273" stop-color="#163e62"/><stop offset=".277" stop-color="#153f63"/><stop offset=".281" stop-color="#143f64"/><stop offset=".285" stop-color="#143f64"/><stop offset=".289" stop-color="#144065"/><stop offset=".293" stop-color="#134165"/><stop offset=".297" stop-color="#134166"/><stop offset=".301" stop-color="#124167"/><stop offset=".305" stop-color="#124268"/><stop offset=".309" stop-color="#114368"/><stop offset=".313" stop-color="#104469"/><stop offset=".316" stop-color="#10446a"/><stop offset=".32" stop-color="#0f446b"/><stop offset=".324" stop-color="#0e456b"/><stop offset=".328" stop-color="#0d466c"/><stop offset=".332" stop-color="#0c466d"/><stop offset=".336" stop-color="#0c466e"/><stop offset=".34" stop-color="#0b476f"/><stop offset=".344" stop-color="#0a4870"/><stop offset=".348" stop-color="#084870"/><stop offset=".352" stop-color="#084871"/><stop offset=".355" stop-color="#074972"/><stop offset=".359" stop-color="#054a72"/><stop offset=".363" stop-color="#044a73"/><stop offset=".367" stop-color="#044b74"/><stop offset=".371" stop-color="#024b75"/><stop offset=".375" stop-color="#014c76"/><stop offset=".379" stop-color="#004d77"/><stop offset=".383" stop-color="#004d77"/><stop offset=".387" stop-color="#004e79"/><stop offset=".391" stop-color="#004e79"/><stop offset=".395" stop-color="#004f7a"/><stop offset=".398" stop-color="#004f7b"/><stop offset=".402" stop-color="#00507c"/><stop offset=".406" stop-color="#00507d"/><stop offset=".41" stop-color="#00517d"/><stop offset=".414" stop-color="#00517e"/><stop offset=".418" stop-color="#00527f"/><stop offset=".422" stop-color="#005280"/><stop offset=".426" stop-color="#005381"/><stop offset=".43" stop-color="#005482"/><stop offset=".434" stop-color="#005482"/><stop offset=".438" stop-color="#005583"/><stop offset=".441" stop-color="#005584"/><stop offset=".445" stop-color="#005685"/><stop offset=".449" stop-color="#005686"/><stop offset=".453" stop-color="#005787"/><stop offset=".457" stop-color="#005888"/><stop offset=".461" stop-color="#005889"/><stop offset=".465" stop-color="#005889"/><stop offset=".469" stop-color="#00598a"/><stop offset=".473" stop-color="#005a8b"/><stop offset=".477" stop-color="#005b8c"/><stop offset=".48" stop-color="#005c8d"/><stop offset=".484" stop-color="#005d8d"/><stop offset=".488" stop-color="#005e8e"/><stop offset=".492" stop-color="#005f90"/><stop offset=".496" stop-color="#006091"/><stop offset=".5" stop-color="#006191"/><stop offset=".504" stop-color="#006292"/><stop offset=".508" stop-color="#006393"/><stop offset=".512" stop-color="#046594"/><stop offset=".516" stop-color="#056696"/><stop offset=".52" stop-color="#096797"/><stop offset=".523" stop-color="#0f6897"/><stop offset=".527" stop-color="#136998"/><stop offset=".531" stop-color="#176b9a"/><stop offset=".535" stop-color="#1b6c9a"/><stop offset=".539" stop-color="#1c6c9b"/><stop offset=".543" stop-color="#1f6e9c"/><stop offset=".547" stop-color="#226f9d"/><stop offset=".551" stop-color="#25709e"/><stop offset=".555" stop-color="#27719f"/><stop offset=".559" stop-color="#2a72a0"/><stop offset=".563" stop-color="#2a73a1"/><stop offset=".566" stop-color="#2d75a2"/><stop offset=".57" stop-color="#2f76a3"/><stop offset=".574" stop-color="#3177a5"/><stop offset=".578" stop-color="#3379a6"/><stop offset=".582" stop-color="#357aa7"/><stop offset=".586" stop-color="#377ca8"/><stop offset=".59" stop-color="#377da9"/><stop offset=".594" stop-color="#397fab"/><stop offset=".598" stop-color="#3c80ab"/><stop offset=".602" stop-color="#3e81ad"/><stop offset=".605" stop-color="#3f82ae"/><stop offset=".609" stop-color="#4284ae"/><stop offset=".613" stop-color="#4285af"/><stop offset=".617" stop-color="#4486b1"/><stop offset=".621" stop-color="#4688b2"/><stop offset=".625" stop-color="#4889b3"/><stop offset=".629" stop-color="#4a8bb4"/><stop offset=".633" stop-color="#4b8cb6"/><stop offset=".637" stop-color="#4c8eb7"/><stop offset=".641" stop-color="#4e8fb8"/><stop offset=".645" stop-color="#4f91ba"/><stop offset=".648" stop-color="#5193bb"/><stop offset=".652" stop-color="#5294bc"/><stop offset=".656" stop-color="#5496be"/><stop offset=".66" stop-color="#5698bf"/><stop offset=".664" stop-color="#5799c0"/><stop offset=".668" stop-color="#589ac2"/><stop offset=".672" stop-color="#5a9cc2"/><stop offset=".676" stop-color="#5c9dc4"/><stop offset=".68" stop-color="#5e9fc6"/><stop offset=".684" stop-color="#5fa1c7"/><stop offset=".688" stop-color="#60a2c8"/><stop offset=".691" stop-color="#62a4ca"/><stop offset=".695" stop-color="#63a5cb"/><stop offset=".699" stop-color="#65a7cd"/><stop offset=".703" stop-color="#67a9ce"/><stop offset=".707" stop-color="#69abd0"/><stop offset=".711" stop-color="#69add1"/><stop offset=".715" stop-color="#6aaed2"/><stop offset=".719" stop-color="#6db1d5"/><stop offset=".723" stop-color="#6eb2d5"/><stop offset=".727" stop-color="#70b4d7"/><stop offset=".73" stop-color="#72b5d8"/><stop offset=".734" stop-color="#73b7d9"/><stop offset=".738" stop-color="#74b8db"/><stop offset=".742" stop-color="#76bbdd"/><stop offset=".746" stop-color="#78bdde"/><stop offset=".75" stop-color="#7abfe0"/><stop offset=".754" stop-color="#7bc0e2"/><stop offset=".758" stop-color="#7dc2e3"/><stop offset=".762" stop-color="#7fc5e5"/><stop offset=".766" stop-color="#80c7e7"/><stop offset=".77" stop-color="#82c8e9"/><stop offset=".773" stop-color="#84caea"/><stop offset=".777" stop-color="#86cdec"/><stop offset=".781" stop-color="#88d0ef"/><stop offset=".785" stop-color="#89d2f0"/><stop offset=".789" stop-color="#8ad5f3"/><stop offset=".793" stop-color="#8dd6f3"/><stop offset=".797" stop-color="#8dd7f4"/><stop offset=".801" stop-color="#8fd7f4"/><stop offset=".805" stop-color="#90d8f4"/><stop offset=".809" stop-color="#92d8f4"/><stop offset=".813" stop-color="#93d9f4"/><stop offset=".816" stop-color="#94d9f4"/><stop offset=".82" stop-color="#96daf4"/><stop offset=".824" stop-color="#97daf4"/><stop offset=".828" stop-color="#98daf4"/><stop offset=".832" stop-color="#99dbf5"/><stop offset=".836" stop-color="#9bdbf5"/><stop offset=".84" stop-color="#9cdcf5"/><stop offset=".844" stop-color="#9edcf5"/><stop offset=".848" stop-color="#9fdcf5"/><stop offset=".852" stop-color="#a0ddf5"/><stop offset=".855" stop-color="#a1ddf5"/><stop offset=".859" stop-color="#a2ddf5"/><stop offset=".863" stop-color="#a4def5"/><stop offset=".867" stop-color="#a6def5"/><stop offset=".871" stop-color="#a7dff5"/><stop offset=".875" stop-color="#a8dff5"/><stop offset=".879" stop-color="#a9e0f5"/><stop offset=".883" stop-color="#aae0f6"/><stop offset=".887" stop-color="#ace1f6"/><stop offset=".891" stop-color="#ade1f6"/><stop offset=".895" stop-color="#aee1f6"/><stop offset=".898" stop-color="#b0e2f6"/><stop offset=".902" stop-color="#b1e2f6"/><stop offset=".906" stop-color="#b2e2f6"/><stop offset=".91" stop-color="#b3e3f6"/><stop offset=".914" stop-color="#b5e4f6"/><stop offset=".918" stop-color="#b6e4f6"/><stop offset=".922" stop-color="#b7e4f6"/><stop offset=".926" stop-color="#b8e5f6"/><stop offset=".93" stop-color="#b9e5f6"/><stop offset=".934" stop-color="#bae5f7"/><stop offset=".938" stop-color="#bde6f7"/><stop offset=".941" stop-color="#bee6f7"/><stop offset=".945" stop-color="#bfe7f7"/><stop offset=".949" stop-color="#c0e7f7"/><stop offset=".953" stop-color="#c1e8f7"/><stop offset=".957" stop-color="#c2e8f7"/><stop offset=".961" stop-color="#c3e8f7"/><stop offset=".965" stop-color="#c5e9f7"/><stop offset=".969" stop-color="#c6e9f7"/><stop offset=".973" stop-color="#c7eaf7"/><stop offset=".977" stop-color="#c8eaf7"/><stop offset=".98" stop-color="#c9ebf7"/><stop offset=".984" stop-color="#caebf8"/><stop offset="1" stop-color="#caebf8"/></linearGradient></defs><g clip-path="url(#b)"><path d="M10.063 9.738v92.528h244.253V9.738zm0 0" fill="url(#c)"/></g><use y="86.769" x="101.066" xlink:href="#d"/><use y="86.769" x="123.862" xlink:href="#e"/><use y="86.769" x="142.514" xlink:href="#f"/><use y="86.769" x="155.13" xlink:href="#g"/><use y="86.769" x="168.655" xlink:href="#h"/><use y="86.769" x="183.271" xlink:href="#i"/><use y="86.769" x="197.196" xlink:href="#j"/><use y="86.769" x="212.793" xlink:href="#k"/><use y="86.769" x="233.153" xlink:href="#h"/><use y="86.769" x="248.278" xlink:href="#l"/><use y="86.769" x="261.185" xlink:href="#g"/><use y="99.299" x="106.337" xlink:href="#m" fill="#005a8b"/><use y="99.299" x="117.095" xlink:href="#n" fill="#005a8b"/><use y="99.299" x="128.25" xlink:href="#o" fill="#005a8b"/><use y="99.299" x="139.007" xlink:href="#p" fill="#005a8b"/><use y="99.299" x="149.764" xlink:href="#q" fill="#005a8b"/><use y="99.299" x="160.131" xlink:href="#r" fill="#005a8b"/><use y="99.299" x="170.499" xlink:href="#s" fill="#005a8b"/><use y="99.299" x="180.078" xlink:href="#t" fill="#005a8b"/><use y="99.299" x="187.685" xlink:href="#p" fill="#005a8b"/><use y="99.299" x="198.442" xlink:href="#u" fill="#005a8b"/><use y="99.299" x="209.597" xlink:href="#v" fill="#005a8b"/><use y="99.299" x="217.204" xlink:href="#m" fill="#005a8b"/><use y="99.299" x="227.961" xlink:href="#r" fill="#005a8b"/><g fill="#005a8b"><use y="99.299" x="238.328" xlink:href="#p"/></g><g fill="#005a8b"><use y="99.299" x="249.086" xlink:href="#w"/></g><g fill="#005a8b"><use y="99.299" x="259.055" xlink:href="#r"/></g><g fill="#005a8b"><use y="99.299" x="269.422" xlink:href="#x"/></g><path d="M274.172 46.27c-.746 1.554-.277-.172-.84.777-.04.058.375-.87.262-.676-.668 1.173-.602.31-.29-.706l.14-.227c.064-.2-.374.59-.342.458.074-.15.113-.223.214-.438-.253.473-.17.195-.363.54.098-.192.277-.57.375-.79l-.3.54c-.72 1.26-.075-.153-.49.472l.18-.345c-.538.72-.61.5-.91.71l.446-.737c-.348.558-.473.668-.574.76.336-.577-.38.482-.23.138l.077-.113c-.398.566.172-.363-.304.332l.27-.453c-.532.777.206-.434-.075-.047l-.106.16c-.144.172.086-.22-.01-.11l.057-.074c-.192.17.066-.284-.34.333.3-.503.203-.203.644-.925-.59.54-.703.32-.883.23.154-.234.197-.32.365-.543-.11.106-.145.078-.4.36.02-.004.216-.293.232-.336.136-.228-.528.627-.352.33l.438-.538c-.364.425-.344.312-.48.43.085-.087.136-.15.276-.325-.434.473.042-.164-.243.12l.28-.307c.302-.438-.584.66-.428.382l.31-.347c-.526.54-.405.29-.616.44l.117-.132c-.108.016.02-.2-.253-.01.118-.15.73-.728.578-.654-.593.585-.304.16-.968.843.058-.14.246-.414 0-.258.254-.187.754-.707.836-.722l.37-.356c.266-.227-.07.09.247-.2-.04 0-.31.184-.223.09-.406.317-1.187.9-1.308.915.272-.188.72-.598.838-.676l-1.328.93c-.043.004.528-.418.336-.305l-.445.31c.067-.063-.24.035.415-.46.27-.2.18-.076.402-.263-.04-.035-.265.14-.3.105l.105-.066c.07-.082-.355.137-.715.426-.012.03.4-.29.227-.133-.406.26-.56.284-.594.253l.492-.32c-.574.32-.79.374-1.066.453-.348.203.62-.36.45-.243.417-.36-.798.227-.146-.246.067-.015-.484.285-.39.235.008-.067.515-.348.308-.27.293-.164-.113.028-.214.047-.223.097.136-.083.175-.083-.266.102-.833.172-.454-.13-.203.11-.777.294-.765.255l.473-.207c.266-.148-.086-.05.313-.246-.598.23.6-.056.12.093.38-.2-.808.27-.16-.02-.038-.035-.6.168-.183-.074-.066.042.688-.26.62-.27l-.417.105-.22.05c-.46.196.044-.078-.47.157.378-.168-.31.004.475-.293l.63-.24c-.066 0-.683.223-.96.3l.27-.12c-.95.356.042-.082-.712.153.28-.164 0-.184.578-.407-.297.047-.648.11-.45-.027.095-.005.126-.005.337-.067.277-.118.027-.05-.133-.035.14-.04.55-.23.906-.364-.304.03-.824.188-1.148.266.965-.29-.637 0 .23-.266.133-.015.492-.05.727-.144.98-.27-.727.082-.254-.106l-.815.196c.507-.137-.485-.02.343-.176-.28.035.278-.145-.523.004.656-.235-.426-.278 1.015-.543-.144 0 0-.05-.42 0-.45.078.32 0 .018.054l-.36.015c.192-.055.247-.094.91-.13.493-.124-1.366.056-1.07-.104.333-.02.47-.035.42-.066l-.583-.027c.136-.086.765-.09 1.328-.12-.094-.032-.067-.075-.485-.072l.703-.07c-.518.047-.342-.023-.48-.027l.138.004c.246-.004.1-.043.015-.063-.336.007-.492.058-.586.085-.246-.015-.2-.058-.488-.074.558.01.4-.062.448-.097.125-.03-.484-.043-.472-.058.28 0 .043-.06.46-.024.09.01-.288.025-.035.052.22-.02.72-.016.357-.066-.277-.043-1.102-.016-.758-.082l.57.054.292-.054-.51-.016.23-.004c-.532-.03-.153-.098-.76-.144-.042-.043.357-.063.42-.09l.042.015c.293-.023.098-.082-.234-.152l.117.016c.03-.017-.05-.076-.344-.134.395-.024 1.914.18 1.274.066-.016-.05-.918-.203-1.25-.215.35-.05-.453-.3.332-.27l-.44-.11c.2-.104-.57-.46.427-.354l.773.187c-.445-.14.46.067-.3-.132-.46-.098-.664-.157-.856-.157-.222-.15-.195-.295.21-.23l-.464-.136c.71.196.82.164.575.043l-.422-.137.433.098c-.14-.05-.886-.293-.457-.207l.456.15c-.336-.15-.89-.39-.51-.313l.635.164c-.06-.03-.417-.182-.616-.218.418.063.48.04 1.024.196-1.24-.547-1.192-.766-1.028-.86l.305.117c.316.083-.54-.226-.305-.175l1.012.398c.344.082-.516-.273-.633-.363-.395-.168.25.137-.26-.086-.147-.06.353.05-.253-.204.243.086.692.28.938.39l-.285-.152c.73.258 1.226.61 2.148.93l-.09-.063c.637.24.696.357.942.396-.305-.156-1.168-.54-1.45-.63-.144-.124-1.44-.632-1.35-.68.358.13.06.09.558.29.515.164-.24-.183-.05-.136-.236-.063-.85-.36-.943-.434.313.086.56.273.653.25l-.852-.383c-.785-.38.238.04-.348-.258.563.23 1.258.625 1.563.684-.538-.228-.68-.388-1.503-.72.172.05.594.238.922.4.343.116-.946-.52.124-.04l-.54-.27c.18.07.325.117.634.242.02-.023-.688-.44.125-.043-.07-.052-.012-.098-.586-.348-.367-.118.39.25-.39-.094.644.27-.052-.098-.25-.22l.323.138c-.12-.07-.03-.07-.363-.242.172.105.39.195.473.218l-.473-.25c-.207-.175.848.4.75.282l.344.226c-.066-.05.387.15.247.055-.434-.23-.95-.508-1.274-.692-.168-.125.493.235.063-.023l.504.3c.13.087.734.352.746.29-.15-.09-.746-.457-.996-.543 0-.024.277.086.582.254-.117-.116-.46-.222-.707-.402.3.13.73.29 1.172.49l.687.42.035-.023c.554.336.437.22 1.05.563.098.03-.105-.102-.25-.203-1.004-.465-1.297-.766-2.19-1.23-.19-.216 2.178 1.14.83.292-.245-.117-.874-.523-.64-.344.117.012-.867-.52-.48-.375.35.25.922.457 1.41.81-.29-.165-.242-.09-.168-.032.355.168.887.496.914.457-.074-.07-.07-.12-.527-.387-.51-.273.026.086-.466-.223-.153-.156.62.274-.25-.27.058.087-.465-.202-.813-.398l-.182-.175.328.214c.29.06-.594-.386-.453-.394l.668.347c.548.344-.308-.046.618.477.058-.016-.4-.31-.14-.215l.167.144c.035 0 1.25.707.574.226-.243-.2-.313-.207-.65-.406-.058-.133-.394-.367-.425-.445.66.417.117-.044.762.425-.395-.22-.43-.094.207.32.78.445-.156-.02.637.47.055-.033.82.432 1.337.73.035.01-.176-.13-.247-.188-.464-.29-.472-.278-.968-.567.16.024-.067-.19-.508-.512.246.125.715.43.738.48-.1-.148 0-.19.184-.148-.78-.453-.137-.187-.78-.582-.193-.07-.76-.398-1.09-.632.06.004.34.214.495.312-.39-.308.7.39.067-.07.203.23.914.625 1.496 1.035-.308-.266.422.277.446.246-.298-.267-.525-.493-.623-.626.575.324.083-.137.11-.215.297.183.945.68 1.078.734.004-.043-.723-.49-.398-.32l.12.097c-.14-.12.497.25-.42-.46l.682.543c.074.027-.08-.09-.15-.16l.57.44c.497.33-.034-.112-.034-.15l-.433-.29c-.286-.31.148-.04.035-.2l.398.32-.22-.222c.38.306.642.493.326.216l.93.84c-.243-.16-.47-.39-.86-.695-.344-.257-.27-.124.11.176.05.02-.032-.043-.173-.175.558.43.515.442.886.74-.023-.028.152.093-.023-.048.27.227.297.266.297.305l-.504-.375c.5.37.632.52.476.445-.594-.414.332.324.156.246-.496-.383-.89-.7-1.086-.883-.265-.16 0 .043-.265-.12.37.292.94.722 1.156.917l-.37-.27c.167.165.73.563.604.524-.218-.08-.246-.018-.328-.007l-.383-.254c.808.58.26.285.613.562-.41-.188.305.348-.387-.05.25.284.496.534.293.542l-.558-.344c.414.258-.356-.18-.278-.105.473.238.586.36.95.574-.49-.216-.008.116.382.366l-.414-.215c.746.443.06.13-.117.11-.163-.077-.562-.26-.515-.226.657.356.594.348.99.582-.013.032-.205-.02-.482-.113.902.523.227.344.742.672l-.507-.195c1.027.515-.028.23.476.515l-.867-.316c-.293-.072.187.132.824.323-.292-.047.392.203-.358-.008-.172-.04.38.156.52.195-.32-.082-.243-.046-.052.016h.05c-.214-.05-.592-.148-.643-.156.258.074-.23-.024.85.226-.604-.12.552.114-.28-.035.285.052.348.068.55.095.024 0-.573-.07-.07-.004-.136-.018-.503-.054-.53-.054l.558.055c.574.04-.56-.038-.422 0 .594.005.277 0 .348.005l-.214.035c.832-.133-.875.16.367-.062-.19.05-.106.023-.523.11.582-.126-.582.144.148-.024l-.102.027c-.503.142.137-.023-.312.11l-.367.106c-.414.14.89-.262-.14.074 0 0 .507-.168.483-.156-.496.19.336-.024.57-.125-.546.28-1.636.753-.882.44-.184.09.37-.18.184-.082.27-.13-1.055.543-.555.297.598-.297.34-.156.695-.34-.355.21-.87.504-.414.285l-.3.16c.878-.457.445-.175 1.41-.753.257-.08.746-.473.76-.555-.268.183.138-.137.056.43-.457.77-.434.76-.18.476l-.168.262c.403-.62.07-.035.47-.633 0 .148.17.012.257.04-.05.062-.38.585-.328.542l.257-.395-.11.183c.07-.09.27-.398.384-.617.488-.49-.047.92.246.872-.09.305.094.082.21-.03-.265.99-.374 1.843.04 1.288 0 0-.672 1.805-.91 2.18" fill="#8bd6f4"/><path d="M266.89 43.523h-.17l.327-.054zm0 0" fill="#89d3f0"/></svg>